<svg xmlns="http://www.w3.org/2000/svg" width="1224" height="476" viewBox="0 0 1224 476" font-family='system-ui, -apple-system, "Segoe UI", sans-serif'>
<rect width="1224" height="476" fill="#fcfcfb"/>
<text x="12.0" y="22.0" font-size="15" fill="#0b0b0b" text-anchor="start" font-weight="600">Latence p95 selon le nombre de clients simultanés</text>
<text x="12.0" y="40.0" font-size="12" fill="#52514e" text-anchor="start" font-weight="400">Millisecondes, échelle logarithmique, une courbe par volume d'utilisateurs</text>
<line x1="12" y1="58" x2="30" y2="58" stroke="#2a78d6" stroke-width="2" stroke-linecap="round"/>
<circle cx="21" cy="58" r="4" fill="#2a78d6" stroke="#fcfcfb" stroke-width="2"/>
<text x="36.0" y="62.0" font-size="12" fill="#52514e" text-anchor="start" font-weight="400">10k</text>
<line x1="80.5" y1="58" x2="98.5" y2="58" stroke="#eb6834" stroke-width="2" stroke-linecap="round"/>
<circle cx="89.5" cy="58" r="4" fill="#eb6834" stroke="#fcfcfb" stroke-width="2"/>
<text x="104.5" y="62.0" font-size="12" fill="#52514e" text-anchor="start" font-weight="400">100k</text>
<line x1="156.5" y1="58" x2="174.5" y2="58" stroke="#1baf7a" stroke-width="2" stroke-linecap="round"/>
<circle cx="165.5" cy="58" r="4" fill="#1baf7a" stroke="#fcfcfb" stroke-width="2"/>
<text x="180.5" y="62.0" font-size="12" fill="#52514e" text-anchor="start" font-weight="400">1M</text>
<text x="12.0" y="86.0" font-size="12" fill="#0b0b0b" text-anchor="start" font-weight="600">GET /users/me</text>
<line x1="60" y1="234.0" x2="260" y2="234.0" stroke="#e1e0d9" stroke-width="1"/>
<text x="54.0" y="238.0" font-size="10" fill="#898781" text-anchor="end" font-weight="400">0.1</text>
<line x1="60" y1="188.7" x2="260" y2="188.7" stroke="#e1e0d9" stroke-width="1"/>
<text x="54.0" y="192.7" font-size="10" fill="#898781" text-anchor="end" font-weight="400">1</text>
<line x1="60" y1="143.3" x2="260" y2="143.3" stroke="#e1e0d9" stroke-width="1"/>
<text x="54.0" y="147.3" font-size="10" fill="#898781" text-anchor="end" font-weight="400">10</text>
<line x1="60" y1="98.0" x2="260" y2="98.0" stroke="#e1e0d9" stroke-width="1"/>
<text x="54.0" y="102.0" font-size="10" fill="#898781" text-anchor="end" font-weight="400">100</text>
<line x1="60" y1="234" x2="260" y2="234" stroke="#c3c2b7" stroke-width="1"/>
<text x="60.0" y="250.0" font-size="10" fill="#898781" text-anchor="middle" font-weight="400">1</text>
<text x="110.0" y="250.0" font-size="10" fill="#898781" text-anchor="middle" font-weight="400">4</text>
<text x="160.0" y="250.0" font-size="10" fill="#898781" text-anchor="middle" font-weight="400">16</text>
<text x="210.0" y="250.0" font-size="10" fill="#898781" text-anchor="middle" font-weight="400">64</text>
<text x="260.0" y="250.0" font-size="10" fill="#898781" text-anchor="middle" font-weight="400">256</text>
<text x="260.0" y="262.0" font-size="10" fill="#898781" text-anchor="end" font-weight="400">clients simultanés</text>
<path d="M60.0,195.7 L110.0,194.3 L160.0,178.9 L210.0,150.9 L260.0,127.3" fill="none" stroke="#2a78d6" stroke-width="2" stroke-linejoin="round" stroke-linecap="round"/>
<circle cx="60.0" cy="195.7" r="4" fill="#2a78d6" stroke="#fcfcfb" stroke-width="2"/>
<circle cx="110.0" cy="194.3" r="4" fill="#2a78d6" stroke="#fcfcfb" stroke-width="2"/>
<circle cx="160.0" cy="178.9" r="4" fill="#2a78d6" stroke="#fcfcfb" stroke-width="2"/>
<circle cx="210.0" cy="150.9" r="4" fill="#2a78d6" stroke="#fcfcfb" stroke-width="2"/>
<circle cx="260.0" cy="127.3" r="4" fill="#2a78d6" stroke="#fcfcfb" stroke-width="2"/>
<path d="M60.0,195.7 L110.0,192.8 L160.0,178.3 L210.0,150.5 L260.0,127.5" fill="none" stroke="#eb6834" stroke-width="2" stroke-linejoin="round" stroke-linecap="round"/>
<circle cx="60.0" cy="195.7" r="4" fill="#eb6834" stroke="#fcfcfb" stroke-width="2"/>
<circle cx="110.0" cy="192.8" r="4" fill="#eb6834" stroke="#fcfcfb" stroke-width="2"/>
<circle cx="160.0" cy="178.3" r="4" fill="#eb6834" stroke="#fcfcfb" stroke-width="2"/>
<circle cx="210.0" cy="150.5" r="4" fill="#eb6834" stroke="#fcfcfb" stroke-width="2"/>
<circle cx="260.0" cy="127.5" r="4" fill="#eb6834" stroke="#fcfcfb" stroke-width="2"/>
<path d="M60.0,193.3 L110.0,191.0 L160.0,176.7 L210.0,151.6 L260.0,127.0" fill="none" stroke="#1baf7a" stroke-width="2" stroke-linejoin="round" stroke-linecap="round"/>
<circle cx="60.0" cy="193.3" r="4" fill="#1baf7a" stroke="#fcfcfb" stroke-width="2"/>
<circle cx="110.0" cy="191.0" r="4" fill="#1baf7a" stroke="#fcfcfb" stroke-width="2"/>
<circle cx="160.0" cy="176.7" r="4" fill="#1baf7a" stroke="#fcfcfb" stroke-width="2"/>
<circle cx="210.0" cy="151.6" r="4" fill="#1baf7a" stroke="#fcfcfb" stroke-width="2"/>
<circle cx="260.0" cy="127.0" r="4" fill="#1baf7a" stroke="#fcfcfb" stroke-width="2"/>
<text x="268.0" y="131.0" font-size="10" fill="#52514e" text-anchor="start" font-weight="400">1M</text>
<text x="268.0" y="143.0" font-size="10" fill="#52514e" text-anchor="start" font-weight="400">10k</text>
<text x="268.0" y="155.0" font-size="10" fill="#52514e" text-anchor="start" font-weight="400">100k</text>
<text x="312.0" y="86.0" font-size="12" fill="#0b0b0b" text-anchor="start" font-weight="600">GET /users/me/sessions</text>
<line x1="360" y1="234.0" x2="560" y2="234.0" stroke="#e1e0d9" stroke-width="1"/>
<text x="354.0" y="238.0" font-size="10" fill="#898781" text-anchor="end" font-weight="400">0.1</text>
<line x1="360" y1="188.7" x2="560" y2="188.7" stroke="#e1e0d9" stroke-width="1"/>
<text x="354.0" y="192.7" font-size="10" fill="#898781" text-anchor="end" font-weight="400">1</text>
<line x1="360" y1="143.3" x2="560" y2="143.3" stroke="#e1e0d9" stroke-width="1"/>
<text x="354.0" y="147.3" font-size="10" fill="#898781" text-anchor="end" font-weight="400">10</text>
<line x1="360" y1="98.0" x2="560" y2="98.0" stroke="#e1e0d9" stroke-width="1"/>
<text x="354.0" y="102.0" font-size="10" fill="#898781" text-anchor="end" font-weight="400">100</text>
<line x1="360" y1="234" x2="560" y2="234" stroke="#c3c2b7" stroke-width="1"/>
<text x="360.0" y="250.0" font-size="10" fill="#898781" text-anchor="middle" font-weight="400">1</text>
<text x="410.0" y="250.0" font-size="10" fill="#898781" text-anchor="middle" font-weight="400">4</text>
<text x="460.0" y="250.0" font-size="10" fill="#898781" text-anchor="middle" font-weight="400">16</text>
<text x="510.0" y="250.0" font-size="10" fill="#898781" text-anchor="middle" font-weight="400">64</text>
<text x="560.0" y="250.0" font-size="10" fill="#898781" text-anchor="middle" font-weight="400">256</text>
<text x="560.0" y="262.0" font-size="10" fill="#898781" text-anchor="end" font-weight="400">clients simultanés</text>
<path d="M360.0,194.9 L410.0,192.8 L460.0,177.1 L510.0,148.3 L560.0,125.4" fill="none" stroke="#2a78d6" stroke-width="2" stroke-linejoin="round" stroke-linecap="round"/>
<circle cx="360.0" cy="194.9" r="4" fill="#2a78d6" stroke="#fcfcfb" stroke-width="2"/>
<circle cx="410.0" cy="192.8" r="4" fill="#2a78d6" stroke="#fcfcfb" stroke-width="2"/>
<circle cx="460.0" cy="177.1" r="4" fill="#2a78d6" stroke="#fcfcfb" stroke-width="2"/>
<circle cx="510.0" cy="148.3" r="4" fill="#2a78d6" stroke="#fcfcfb" stroke-width="2"/>
<circle cx="560.0" cy="125.4" r="4" fill="#2a78d6" stroke="#fcfcfb" stroke-width="2"/>
<path d="M360.0,195.4 L410.0,192.3 L460.0,177.3 L510.0,150.1 L560.0,127.0" fill="none" stroke="#eb6834" stroke-width="2" stroke-linejoin="round" stroke-linecap="round"/>
<circle cx="360.0" cy="195.4" r="4" fill="#eb6834" stroke="#fcfcfb" stroke-width="2"/>
<circle cx="410.0" cy="192.3" r="4" fill="#eb6834" stroke="#fcfcfb" stroke-width="2"/>
<circle cx="460.0" cy="177.3" r="4" fill="#eb6834" stroke="#fcfcfb" stroke-width="2"/>
<circle cx="510.0" cy="150.1" r="4" fill="#eb6834" stroke="#fcfcfb" stroke-width="2"/>
<circle cx="560.0" cy="127.0" r="4" fill="#eb6834" stroke="#fcfcfb" stroke-width="2"/>
<path d="M360.0,193.1 L410.0,191.4 L460.0,177.5 L510.0,151.4 L560.0,126.6" fill="none" stroke="#1baf7a" stroke-width="2" stroke-linejoin="round" stroke-linecap="round"/>
<circle cx="360.0" cy="193.1" r="4" fill="#1baf7a" stroke="#fcfcfb" stroke-width="2"/>
<circle cx="410.0" cy="191.4" r="4" fill="#1baf7a" stroke="#fcfcfb" stroke-width="2"/>
<circle cx="460.0" cy="177.5" r="4" fill="#1baf7a" stroke="#fcfcfb" stroke-width="2"/>
<circle cx="510.0" cy="151.4" r="4" fill="#1baf7a" stroke="#fcfcfb" stroke-width="2"/>
<circle cx="560.0" cy="126.6" r="4" fill="#1baf7a" stroke="#fcfcfb" stroke-width="2"/>
<text x="568.0" y="129.4" font-size="10" fill="#52514e" text-anchor="start" font-weight="400">10k</text>
<text x="568.0" y="141.4" font-size="10" fill="#52514e" text-anchor="start" font-weight="400">1M</text>
<text x="568.0" y="153.4" font-size="10" fill="#52514e" text-anchor="start" font-weight="400">100k</text>
<text x="612.0" y="86.0" font-size="12" fill="#0b0b0b" text-anchor="start" font-weight="600">GET /users/me/audit</text>
<line x1="660" y1="234.0" x2="860" y2="234.0" stroke="#e1e0d9" stroke-width="1"/>
<text x="654.0" y="238.0" font-size="10" fill="#898781" text-anchor="end" font-weight="400">0.1</text>
<line x1="660" y1="188.7" x2="860" y2="188.7" stroke="#e1e0d9" stroke-width="1"/>
<text x="654.0" y="192.7" font-size="10" fill="#898781" text-anchor="end" font-weight="400">1</text>
<line x1="660" y1="143.3" x2="860" y2="143.3" stroke="#e1e0d9" stroke-width="1"/>
<text x="654.0" y="147.3" font-size="10" fill="#898781" text-anchor="end" font-weight="400">10</text>
<line x1="660" y1="98.0" x2="860" y2="98.0" stroke="#e1e0d9" stroke-width="1"/>
<text x="654.0" y="102.0" font-size="10" fill="#898781" text-anchor="end" font-weight="400">100</text>
<line x1="660" y1="234" x2="860" y2="234" stroke="#c3c2b7" stroke-width="1"/>
<text x="660.0" y="250.0" font-size="10" fill="#898781" text-anchor="middle" font-weight="400">1</text>
<text x="710.0" y="250.0" font-size="10" fill="#898781" text-anchor="middle" font-weight="400">4</text>
<text x="760.0" y="250.0" font-size="10" fill="#898781" text-anchor="middle" font-weight="400">16</text>
<text x="810.0" y="250.0" font-size="10" fill="#898781" text-anchor="middle" font-weight="400">64</text>
<text x="860.0" y="250.0" font-size="10" fill="#898781" text-anchor="middle" font-weight="400">256</text>
<text x="860.0" y="262.0" font-size="10" fill="#898781" text-anchor="end" font-weight="400">clients simultanés</text>
<path d="M660.0,193.3 L710.0,191.2 L760.0,176.3 L810.0,148.1 L860.0,123.4" fill="none" stroke="#2a78d6" stroke-width="2" stroke-linejoin="round" stroke-linecap="round"/>
<circle cx="660.0" cy="193.3" r="4" fill="#2a78d6" stroke="#fcfcfb" stroke-width="2"/>
<circle cx="710.0" cy="191.2" r="4" fill="#2a78d6" stroke="#fcfcfb" stroke-width="2"/>
<circle cx="760.0" cy="176.3" r="4" fill="#2a78d6" stroke="#fcfcfb" stroke-width="2"/>
<circle cx="810.0" cy="148.1" r="4" fill="#2a78d6" stroke="#fcfcfb" stroke-width="2"/>
<circle cx="860.0" cy="123.4" r="4" fill="#2a78d6" stroke="#fcfcfb" stroke-width="2"/>
<path d="M660.0,193.8 L710.0,190.7 L760.0,176.1 L810.0,149.9 L860.0,126.0" fill="none" stroke="#eb6834" stroke-width="2" stroke-linejoin="round" stroke-linecap="round"/>
<circle cx="660.0" cy="193.8" r="4" fill="#eb6834" stroke="#fcfcfb" stroke-width="2"/>
<circle cx="710.0" cy="190.7" r="4" fill="#eb6834" stroke="#fcfcfb" stroke-width="2"/>
<circle cx="760.0" cy="176.1" r="4" fill="#eb6834" stroke="#fcfcfb" stroke-width="2"/>
<circle cx="810.0" cy="149.9" r="4" fill="#eb6834" stroke="#fcfcfb" stroke-width="2"/>
<circle cx="860.0" cy="126.0" r="4" fill="#eb6834" stroke="#fcfcfb" stroke-width="2"/>
<path d="M660.0,184.9 L710.0,189.7 L760.0,176.1 L810.0,150.5 L860.0,125.6" fill="none" stroke="#1baf7a" stroke-width="2" stroke-linejoin="round" stroke-linecap="round"/>
<circle cx="660.0" cy="184.9" r="4" fill="#1baf7a" stroke="#fcfcfb" stroke-width="2"/>
<circle cx="710.0" cy="189.7" r="4" fill="#1baf7a" stroke="#fcfcfb" stroke-width="2"/>
<circle cx="760.0" cy="176.1" r="4" fill="#1baf7a" stroke="#fcfcfb" stroke-width="2"/>
<circle cx="810.0" cy="150.5" r="4" fill="#1baf7a" stroke="#fcfcfb" stroke-width="2"/>
<circle cx="860.0" cy="125.6" r="4" fill="#1baf7a" stroke="#fcfcfb" stroke-width="2"/>
<text x="868.0" y="127.4" font-size="10" fill="#52514e" text-anchor="start" font-weight="400">10k</text>
<text x="868.0" y="139.4" font-size="10" fill="#52514e" text-anchor="start" font-weight="400">1M</text>
<text x="868.0" y="151.4" font-size="10" fill="#52514e" text-anchor="start" font-weight="400">100k</text>
<text x="912.0" y="86.0" font-size="12" fill="#0b0b0b" text-anchor="start" font-weight="600">GET /users/me/two-factor</text>
<line x1="960" y1="234.0" x2="1160" y2="234.0" stroke="#e1e0d9" stroke-width="1"/>
<text x="954.0" y="238.0" font-size="10" fill="#898781" text-anchor="end" font-weight="400">0.1</text>
<line x1="960" y1="188.7" x2="1160" y2="188.7" stroke="#e1e0d9" stroke-width="1"/>
<text x="954.0" y="192.7" font-size="10" fill="#898781" text-anchor="end" font-weight="400">1</text>
<line x1="960" y1="143.3" x2="1160" y2="143.3" stroke="#e1e0d9" stroke-width="1"/>
<text x="954.0" y="147.3" font-size="10" fill="#898781" text-anchor="end" font-weight="400">10</text>
<line x1="960" y1="98.0" x2="1160" y2="98.0" stroke="#e1e0d9" stroke-width="1"/>
<text x="954.0" y="102.0" font-size="10" fill="#898781" text-anchor="end" font-weight="400">100</text>
<line x1="960" y1="234" x2="1160" y2="234" stroke="#c3c2b7" stroke-width="1"/>
<text x="960.0" y="250.0" font-size="10" fill="#898781" text-anchor="middle" font-weight="400">1</text>
<text x="1010.0" y="250.0" font-size="10" fill="#898781" text-anchor="middle" font-weight="400">4</text>
<text x="1060.0" y="250.0" font-size="10" fill="#898781" text-anchor="middle" font-weight="400">16</text>
<text x="1110.0" y="250.0" font-size="10" fill="#898781" text-anchor="middle" font-weight="400">64</text>
<text x="1160.0" y="250.0" font-size="10" fill="#898781" text-anchor="middle" font-weight="400">256</text>
<text x="1160.0" y="262.0" font-size="10" fill="#898781" text-anchor="end" font-weight="400">clients simultanés</text>
<path d="M960.0,195.7 L1010.0,193.6 L1060.0,175.3 L1110.0,146.2 L1160.0,123.4" fill="none" stroke="#2a78d6" stroke-width="2" stroke-linejoin="round" stroke-linecap="round"/>
<circle cx="960.0" cy="195.7" r="4" fill="#2a78d6" stroke="#fcfcfb" stroke-width="2"/>
<circle cx="1010.0" cy="193.6" r="4" fill="#2a78d6" stroke="#fcfcfb" stroke-width="2"/>
<circle cx="1060.0" cy="175.3" r="4" fill="#2a78d6" stroke="#fcfcfb" stroke-width="2"/>
<circle cx="1110.0" cy="146.2" r="4" fill="#2a78d6" stroke="#fcfcfb" stroke-width="2"/>
<circle cx="1160.0" cy="123.4" r="4" fill="#2a78d6" stroke="#fcfcfb" stroke-width="2"/>
<path d="M960.0,195.4 L1010.0,192.3 L1060.0,175.3 L1110.0,148.3 L1160.0,123.8" fill="none" stroke="#eb6834" stroke-width="2" stroke-linejoin="round" stroke-linecap="round"/>
<circle cx="960.0" cy="195.4" r="4" fill="#eb6834" stroke="#fcfcfb" stroke-width="2"/>
<circle cx="1010.0" cy="192.3" r="4" fill="#eb6834" stroke="#fcfcfb" stroke-width="2"/>
<circle cx="1060.0" cy="175.3" r="4" fill="#eb6834" stroke="#fcfcfb" stroke-width="2"/>
<circle cx="1110.0" cy="148.3" r="4" fill="#eb6834" stroke="#fcfcfb" stroke-width="2"/>
<circle cx="1160.0" cy="123.8" r="4" fill="#eb6834" stroke="#fcfcfb" stroke-width="2"/>
<path d="M960.0,194.6 L1010.0,191.9 L1060.0,175.9 L1110.0,149.9 L1160.0,124.2" fill="none" stroke="#1baf7a" stroke-width="2" stroke-linejoin="round" stroke-linecap="round"/>
<circle cx="960.0" cy="194.6" r="4" fill="#1baf7a" stroke="#fcfcfb" stroke-width="2"/>
<circle cx="1010.0" cy="191.9" r="4" fill="#1baf7a" stroke="#fcfcfb" stroke-width="2"/>
<circle cx="1060.0" cy="175.9" r="4" fill="#1baf7a" stroke="#fcfcfb" stroke-width="2"/>
<circle cx="1110.0" cy="149.9" r="4" fill="#1baf7a" stroke="#fcfcfb" stroke-width="2"/>
<circle cx="1160.0" cy="124.2" r="4" fill="#1baf7a" stroke="#fcfcfb" stroke-width="2"/>
<text x="1168.0" y="127.4" font-size="10" fill="#52514e" text-anchor="start" font-weight="400">10k</text>
<text x="1168.0" y="139.4" font-size="10" fill="#52514e" text-anchor="start" font-weight="400">100k</text>
<text x="1168.0" y="151.4" font-size="10" fill="#52514e" text-anchor="start" font-weight="400">1M</text>
<text x="12.0" y="286.0" font-size="12" fill="#0b0b0b" text-anchor="start" font-weight="600">POST /auth/refresh</text>
<line x1="60" y1="434.0" x2="260" y2="434.0" stroke="#e1e0d9" stroke-width="1"/>
<text x="54.0" y="438.0" font-size="10" fill="#898781" text-anchor="end" font-weight="400">1</text>
<line x1="60" y1="366.0" x2="260" y2="366.0" stroke="#e1e0d9" stroke-width="1"/>
<text x="54.0" y="370.0" font-size="10" fill="#898781" text-anchor="end" font-weight="400">10</text>
<line x1="60" y1="298.0" x2="260" y2="298.0" stroke="#e1e0d9" stroke-width="1"/>
<text x="54.0" y="302.0" font-size="10" fill="#898781" text-anchor="end" font-weight="400">100</text>
<line x1="60" y1="434" x2="260" y2="434" stroke="#c3c2b7" stroke-width="1"/>
<text x="60.0" y="450.0" font-size="10" fill="#898781" text-anchor="middle" font-weight="400">1</text>
<text x="110.0" y="450.0" font-size="10" fill="#898781" text-anchor="middle" font-weight="400">4</text>
<text x="160.0" y="450.0" font-size="10" fill="#898781" text-anchor="middle" font-weight="400">16</text>
<text x="210.0" y="450.0" font-size="10" fill="#898781" text-anchor="middle" font-weight="400">64</text>
<text x="260.0" y="450.0" font-size="10" fill="#898781" text-anchor="middle" font-weight="400">256</text>
<text x="260.0" y="462.0" font-size="10" fill="#898781" text-anchor="end" font-weight="400">clients simultanés</text>
<path d="M60.0,396.4 L110.0,388.2 L160.0,381.1 L210.0,351.4 L260.0,314.7" fill="none" stroke="#2a78d6" stroke-width="2" stroke-linejoin="round" stroke-linecap="round"/>
<circle cx="60.0" cy="396.4" r="4" fill="#2a78d6" stroke="#fcfcfb" stroke-width="2"/>
<circle cx="110.0" cy="388.2" r="4" fill="#2a78d6" stroke="#fcfcfb" stroke-width="2"/>
<circle cx="160.0" cy="381.1" r="4" fill="#2a78d6" stroke="#fcfcfb" stroke-width="2"/>
<circle cx="210.0" cy="351.4" r="4" fill="#2a78d6" stroke="#fcfcfb" stroke-width="2"/>
<circle cx="260.0" cy="314.7" r="4" fill="#2a78d6" stroke="#fcfcfb" stroke-width="2"/>
<path d="M60.0,395.8 L110.0,382.3 L160.0,381.7 L210.0,353.5 L260.0,316.5" fill="none" stroke="#eb6834" stroke-width="2" stroke-linejoin="round" stroke-linecap="round"/>
<circle cx="60.0" cy="395.8" r="4" fill="#eb6834" stroke="#fcfcfb" stroke-width="2"/>
<circle cx="110.0" cy="382.3" r="4" fill="#eb6834" stroke="#fcfcfb" stroke-width="2"/>
<circle cx="160.0" cy="381.7" r="4" fill="#eb6834" stroke="#fcfcfb" stroke-width="2"/>
<circle cx="210.0" cy="353.5" r="4" fill="#eb6834" stroke="#fcfcfb" stroke-width="2"/>
<circle cx="260.0" cy="316.5" r="4" fill="#eb6834" stroke="#fcfcfb" stroke-width="2"/>
<path d="M60.0,394.6 L110.0,387.3 L160.0,375.8 L210.0,349.1 L260.0,314.4" fill="none" stroke="#1baf7a" stroke-width="2" stroke-linejoin="round" stroke-linecap="round"/>
<circle cx="60.0" cy="394.6" r="4" fill="#1baf7a" stroke="#fcfcfb" stroke-width="2"/>
<circle cx="110.0" cy="387.3" r="4" fill="#1baf7a" stroke="#fcfcfb" stroke-width="2"/>
<circle cx="160.0" cy="375.8" r="4" fill="#1baf7a" stroke="#fcfcfb" stroke-width="2"/>
<circle cx="210.0" cy="349.1" r="4" fill="#1baf7a" stroke="#fcfcfb" stroke-width="2"/>
<circle cx="260.0" cy="314.4" r="4" fill="#1baf7a" stroke="#fcfcfb" stroke-width="2"/>
<text x="268.0" y="318.4" font-size="10" fill="#52514e" text-anchor="start" font-weight="400">1M</text>
<text x="268.0" y="330.4" font-size="10" fill="#52514e" text-anchor="start" font-weight="400">10k</text>
<text x="268.0" y="342.4" font-size="10" fill="#52514e" text-anchor="start" font-weight="400">100k</text>
<text x="312.0" y="286.0" font-size="12" fill="#0b0b0b" text-anchor="start" font-weight="600">POST /auth/login</text>
<line x1="360" y1="434.0" x2="560" y2="434.0" stroke="#e1e0d9" stroke-width="1"/>
<text x="354.0" y="438.0" font-size="10" fill="#898781" text-anchor="end" font-weight="400">10</text>
<line x1="360" y1="388.7" x2="560" y2="388.7" stroke="#e1e0d9" stroke-width="1"/>
<text x="354.0" y="392.7" font-size="10" fill="#898781" text-anchor="end" font-weight="400">100</text>
<line x1="360" y1="343.3" x2="560" y2="343.3" stroke="#e1e0d9" stroke-width="1"/>
<text x="354.0" y="347.3" font-size="10" fill="#898781" text-anchor="end" font-weight="400">1 s</text>
<line x1="360" y1="298.0" x2="560" y2="298.0" stroke="#e1e0d9" stroke-width="1"/>
<text x="354.0" y="302.0" font-size="10" fill="#898781" text-anchor="end" font-weight="400">10 s</text>
<line x1="360" y1="434" x2="560" y2="434" stroke="#c3c2b7" stroke-width="1"/>
<text x="360.0" y="450.0" font-size="10" fill="#898781" text-anchor="middle" font-weight="400">1</text>
<text x="410.0" y="450.0" font-size="10" fill="#898781" text-anchor="middle" font-weight="400">4</text>
<text x="460.0" y="450.0" font-size="10" fill="#898781" text-anchor="middle" font-weight="400">16</text>
<text x="510.0" y="450.0" font-size="10" fill="#898781" text-anchor="middle" font-weight="400">64</text>
<text x="560.0" y="450.0" font-size="10" fill="#898781" text-anchor="middle" font-weight="400">256</text>
<text x="560.0" y="462.0" font-size="10" fill="#898781" text-anchor="end" font-weight="400">clients simultanés</text>
<path d="M360.0,394.9 L410.0,382.0 L460.0,358.5 L510.0,332.0 L560.0,305.5" fill="none" stroke="#2a78d6" stroke-width="2" stroke-linejoin="round" stroke-linecap="round"/>
<circle cx="360.0" cy="394.9" r="4" fill="#2a78d6" stroke="#fcfcfb" stroke-width="2"/>
<circle cx="410.0" cy="382.0" r="4" fill="#2a78d6" stroke="#fcfcfb" stroke-width="2"/>
<circle cx="460.0" cy="358.5" r="4" fill="#2a78d6" stroke="#fcfcfb" stroke-width="2"/>
<circle cx="510.0" cy="332.0" r="4" fill="#2a78d6" stroke="#fcfcfb" stroke-width="2"/>
<circle cx="560.0" cy="305.5" r="4" fill="#2a78d6" stroke="#fcfcfb" stroke-width="2"/>
<path d="M360.0,393.5 L410.0,379.2 L460.0,356.7 L510.0,330.3 L560.0,303.2" fill="none" stroke="#eb6834" stroke-width="2" stroke-linejoin="round" stroke-linecap="round"/>
<circle cx="360.0" cy="393.5" r="4" fill="#eb6834" stroke="#fcfcfb" stroke-width="2"/>
<circle cx="410.0" cy="379.2" r="4" fill="#eb6834" stroke="#fcfcfb" stroke-width="2"/>
<circle cx="460.0" cy="356.7" r="4" fill="#eb6834" stroke="#fcfcfb" stroke-width="2"/>
<circle cx="510.0" cy="330.3" r="4" fill="#eb6834" stroke="#fcfcfb" stroke-width="2"/>
<circle cx="560.0" cy="303.2" r="4" fill="#eb6834" stroke="#fcfcfb" stroke-width="2"/>
<path d="M360.0,392.2 L410.0,379.6 L460.0,356.3 L510.0,330.1 L560.0,302.6" fill="none" stroke="#1baf7a" stroke-width="2" stroke-linejoin="round" stroke-linecap="round"/>
<circle cx="360.0" cy="392.2" r="4" fill="#1baf7a" stroke="#fcfcfb" stroke-width="2"/>
<circle cx="410.0" cy="379.6" r="4" fill="#1baf7a" stroke="#fcfcfb" stroke-width="2"/>
<circle cx="460.0" cy="356.3" r="4" fill="#1baf7a" stroke="#fcfcfb" stroke-width="2"/>
<circle cx="510.0" cy="330.1" r="4" fill="#1baf7a" stroke="#fcfcfb" stroke-width="2"/>
<circle cx="560.0" cy="302.6" r="4" fill="#1baf7a" stroke="#fcfcfb" stroke-width="2"/>
<text x="568.0" y="306.6" font-size="10" fill="#52514e" text-anchor="start" font-weight="400">1M</text>
<text x="568.0" y="318.6" font-size="10" fill="#52514e" text-anchor="start" font-weight="400">100k</text>
<text x="568.0" y="330.6" font-size="10" fill="#52514e" text-anchor="start" font-weight="400">10k</text>
<text x="612.0" y="286.0" font-size="12" fill="#0b0b0b" text-anchor="start" font-weight="600">POST /auth/register</text>
<line x1="660" y1="434.0" x2="860" y2="434.0" stroke="#e1e0d9" stroke-width="1"/>
<text x="654.0" y="438.0" font-size="10" fill="#898781" text-anchor="end" font-weight="400">10</text>
<line x1="660" y1="388.7" x2="860" y2="388.7" stroke="#e1e0d9" stroke-width="1"/>
<text x="654.0" y="392.7" font-size="10" fill="#898781" text-anchor="end" font-weight="400">100</text>
<line x1="660" y1="343.3" x2="860" y2="343.3" stroke="#e1e0d9" stroke-width="1"/>
<text x="654.0" y="347.3" font-size="10" fill="#898781" text-anchor="end" font-weight="400">1 s</text>
<line x1="660" y1="298.0" x2="860" y2="298.0" stroke="#e1e0d9" stroke-width="1"/>
<text x="654.0" y="302.0" font-size="10" fill="#898781" text-anchor="end" font-weight="400">10 s</text>
<line x1="660" y1="434" x2="860" y2="434" stroke="#c3c2b7" stroke-width="1"/>
<text x="660.0" y="450.0" font-size="10" fill="#898781" text-anchor="middle" font-weight="400">1</text>
<text x="710.0" y="450.0" font-size="10" fill="#898781" text-anchor="middle" font-weight="400">4</text>
<text x="760.0" y="450.0" font-size="10" fill="#898781" text-anchor="middle" font-weight="400">16</text>
<text x="810.0" y="450.0" font-size="10" fill="#898781" text-anchor="middle" font-weight="400">64</text>
<text x="860.0" y="450.0" font-size="10" fill="#898781" text-anchor="middle" font-weight="400">256</text>
<text x="860.0" y="462.0" font-size="10" fill="#898781" text-anchor="end" font-weight="400">clients simultanés</text>
<path d="M660.0,393.9 L710.0,382.9 L760.0,358.1 L810.0,331.6 L860.0,305.4" fill="none" stroke="#2a78d6" stroke-width="2" stroke-linejoin="round" stroke-linecap="round"/>
<circle cx="660.0" cy="393.9" r="4" fill="#2a78d6" stroke="#fcfcfb" stroke-width="2"/>
<circle cx="710.0" cy="382.9" r="4" fill="#2a78d6" stroke="#fcfcfb" stroke-width="2"/>
<circle cx="760.0" cy="358.1" r="4" fill="#2a78d6" stroke="#fcfcfb" stroke-width="2"/>
<circle cx="810.0" cy="331.6" r="4" fill="#2a78d6" stroke="#fcfcfb" stroke-width="2"/>
<circle cx="860.0" cy="305.4" r="4" fill="#2a78d6" stroke="#fcfcfb" stroke-width="2"/>
<path d="M660.0,391.2 L710.0,381.0 L760.0,357.3 L810.0,330.8 L860.0,303.7" fill="none" stroke="#eb6834" stroke-width="2" stroke-linejoin="round" stroke-linecap="round"/>
<circle cx="660.0" cy="391.2" r="4" fill="#eb6834" stroke="#fcfcfb" stroke-width="2"/>
<circle cx="710.0" cy="381.0" r="4" fill="#eb6834" stroke="#fcfcfb" stroke-width="2"/>
<circle cx="760.0" cy="357.3" r="4" fill="#eb6834" stroke="#fcfcfb" stroke-width="2"/>
<circle cx="810.0" cy="330.8" r="4" fill="#eb6834" stroke="#fcfcfb" stroke-width="2"/>
<circle cx="860.0" cy="303.7" r="4" fill="#eb6834" stroke="#fcfcfb" stroke-width="2"/>
<path d="M660.0,390.4 L710.0,379.6 L760.0,355.1 L810.0,329.5 L860.0,301.3" fill="none" stroke="#1baf7a" stroke-width="2" stroke-linejoin="round" stroke-linecap="round"/>
<circle cx="660.0" cy="390.4" r="4" fill="#1baf7a" stroke="#fcfcfb" stroke-width="2"/>
<circle cx="710.0" cy="379.6" r="4" fill="#1baf7a" stroke="#fcfcfb" stroke-width="2"/>
<circle cx="760.0" cy="355.1" r="4" fill="#1baf7a" stroke="#fcfcfb" stroke-width="2"/>
<circle cx="810.0" cy="329.5" r="4" fill="#1baf7a" stroke="#fcfcfb" stroke-width="2"/>
<circle cx="860.0" cy="301.3" r="4" fill="#1baf7a" stroke="#fcfcfb" stroke-width="2"/>
<text x="868.0" y="305.3" font-size="10" fill="#52514e" text-anchor="start" font-weight="400">1M</text>
<text x="868.0" y="317.3" font-size="10" fill="#52514e" text-anchor="start" font-weight="400">100k</text>
<text x="868.0" y="329.3" font-size="10" fill="#52514e" text-anchor="start" font-weight="400">10k</text>
<text x="912.0" y="286.0" font-size="12" fill="#0b0b0b" text-anchor="start" font-weight="600">Trafic mixte</text>
<line x1="960" y1="434.0" x2="1160" y2="434.0" stroke="#e1e0d9" stroke-width="1"/>
<text x="954.0" y="438.0" font-size="10" fill="#898781" text-anchor="end" font-weight="400">10</text>
<line x1="960" y1="388.7" x2="1160" y2="388.7" stroke="#e1e0d9" stroke-width="1"/>
<text x="954.0" y="392.7" font-size="10" fill="#898781" text-anchor="end" font-weight="400">100</text>
<line x1="960" y1="343.3" x2="1160" y2="343.3" stroke="#e1e0d9" stroke-width="1"/>
<text x="954.0" y="347.3" font-size="10" fill="#898781" text-anchor="end" font-weight="400">1 s</text>
<line x1="960" y1="298.0" x2="1160" y2="298.0" stroke="#e1e0d9" stroke-width="1"/>
<text x="954.0" y="302.0" font-size="10" fill="#898781" text-anchor="end" font-weight="400">10 s</text>
<line x1="960" y1="434" x2="1160" y2="434" stroke="#c3c2b7" stroke-width="1"/>
<text x="960.0" y="450.0" font-size="10" fill="#898781" text-anchor="middle" font-weight="400">1</text>
<text x="1010.0" y="450.0" font-size="10" fill="#898781" text-anchor="middle" font-weight="400">4</text>
<text x="1060.0" y="450.0" font-size="10" fill="#898781" text-anchor="middle" font-weight="400">16</text>
<text x="1110.0" y="450.0" font-size="10" fill="#898781" text-anchor="middle" font-weight="400">64</text>
<text x="1160.0" y="450.0" font-size="10" fill="#898781" text-anchor="middle" font-weight="400">256</text>
<text x="1160.0" y="462.0" font-size="10" fill="#898781" text-anchor="end" font-weight="400">clients simultanés</text>
<path d="M960.0,395.9 L1010.0,389.6 L1060.0,360.2 L1110.0,331.8 L1160.0,304.4" fill="none" stroke="#2a78d6" stroke-width="2" stroke-linejoin="round" stroke-linecap="round"/>
<circle cx="960.0" cy="395.9" r="4" fill="#2a78d6" stroke="#fcfcfb" stroke-width="2"/>
<circle cx="1010.0" cy="389.6" r="4" fill="#2a78d6" stroke="#fcfcfb" stroke-width="2"/>
<circle cx="1060.0" cy="360.2" r="4" fill="#2a78d6" stroke="#fcfcfb" stroke-width="2"/>
<circle cx="1110.0" cy="331.8" r="4" fill="#2a78d6" stroke="#fcfcfb" stroke-width="2"/>
<circle cx="1160.0" cy="304.4" r="4" fill="#2a78d6" stroke="#fcfcfb" stroke-width="2"/>
<path d="M960.0,395.5 L1010.0,388.0 L1060.0,358.5 L1110.0,330.4 L1160.0,302.8" fill="none" stroke="#eb6834" stroke-width="2" stroke-linejoin="round" stroke-linecap="round"/>
<circle cx="960.0" cy="395.5" r="4" fill="#eb6834" stroke="#fcfcfb" stroke-width="2"/>
<circle cx="1010.0" cy="388.0" r="4" fill="#eb6834" stroke="#fcfcfb" stroke-width="2"/>
<circle cx="1060.0" cy="358.5" r="4" fill="#eb6834" stroke="#fcfcfb" stroke-width="2"/>
<circle cx="1110.0" cy="330.4" r="4" fill="#eb6834" stroke="#fcfcfb" stroke-width="2"/>
<circle cx="1160.0" cy="302.8" r="4" fill="#eb6834" stroke="#fcfcfb" stroke-width="2"/>
<path d="M960.0,393.5 L1010.0,388.4 L1060.0,358.3 L1110.0,330.1 L1160.0,303.0" fill="none" stroke="#1baf7a" stroke-width="2" stroke-linejoin="round" stroke-linecap="round"/>
<circle cx="960.0" cy="393.5" r="4" fill="#1baf7a" stroke="#fcfcfb" stroke-width="2"/>
<circle cx="1010.0" cy="388.4" r="4" fill="#1baf7a" stroke="#fcfcfb" stroke-width="2"/>
<circle cx="1060.0" cy="358.3" r="4" fill="#1baf7a" stroke="#fcfcfb" stroke-width="2"/>
<circle cx="1110.0" cy="330.1" r="4" fill="#1baf7a" stroke="#fcfcfb" stroke-width="2"/>
<circle cx="1160.0" cy="303.0" r="4" fill="#1baf7a" stroke="#fcfcfb" stroke-width="2"/>
<text x="1168.0" y="306.8" font-size="10" fill="#52514e" text-anchor="start" font-weight="400">100k</text>
<text x="1168.0" y="318.8" font-size="10" fill="#52514e" text-anchor="start" font-weight="400">1M</text>
<text x="1168.0" y="330.8" font-size="10" fill="#52514e" text-anchor="start" font-weight="400">10k</text>
</svg>